<?xml version="1.0" encoding="utf-8"?>
<!-- Generator: Adobe Illustrator 23.0.0, SVG Export Plug-In . SVG Version: 6.00 Build 0)  -->
<svg version="1.1" id="Layer_1" xmlns="http://www.w3.org/2000/svg" xmlns:xlink="http://www.w3.org/1999/xlink" x="0px" y="0px"
	 viewBox="0 0 300 300" style="enable-background:new 0 0 300 300;" xml:space="preserve">
<style type="text/css">
	.st0{fill:#FFFFFF;}
</style>
<g>
	<g>
		<g>
			<g>
				<path class="st0" d="M139.4,96.2c-22.7,0-41.1,18.4-41.1,41.1c0,22.7,18.4,41.1,41.1,41.1c7.4,0,14.4-2,20.4-5.5
					c2.6-1.5,5.1-3.3,7.3-5.3c0.1-0.1,0.2-0.1,0.2-0.2c0.7-0.7,1.4-1.3,2.1-2c0,0,0.1-0.1,0.1-0.1c2.8-3,5.1-6.4,6.9-10.1
					c2.6-5.4,4.1-11.4,4.1-17.8C180.5,114.6,162.1,96.2,139.4,96.2z M159.3,147h-39.7c-4.3,0-7.8-3.5-7.8-7.8s3.5-7.8,7.8-7.8h39.7
					c4.3,0,7.8,3.5,7.8,7.8S163.6,147,159.3,147z"/>
				<path class="st0" d="M150,0C67.2,0,0,67.2,0,150s67.2,150,150,150s150-67.2,150-150S232.8,0,150,0z M225.4,221.3
					c-2.4,2.4-5.5,3.6-8.6,3.6s-6.2-1.2-8.6-3.6l-34.1-34.1c-9.8,6.9-21.8,10.9-34.7,10.9c-33.5,0-60.7-27.2-60.7-60.7
					s27.2-60.7,60.7-60.7s60.7,27.2,60.7,60.7c0,11.9-3.4,22.9-9.3,32.3l34.6,34.6C230.2,208.8,230.2,216.5,225.4,221.3z"/>
			</g>
		</g>
	</g>
	<path class="st0" d="M160.6,147.2h-42.4c-3.6,0-6.4-2.9-6.4-6.4v-3.1c0-3.6,2.9-6.4,6.4-6.4h42.4c3.6,0,6.4,2.9,6.4,6.4v3.1
		C167,144.3,164.2,147.2,160.6,147.2z"/>
</g>
</svg>
